<svg xmlns="http://www.w3.org/2000/svg" xmlns:xlink="http://www.w3.org/1999/xlink" width="100" zoomAndPan="magnify" viewBox="0 0 75 74.999997" height="100" preserveAspectRatio="xMidYMid meet" version="1.0"><defs><clipPath id="29434ce6b8"><path d="M 5.5 5.5 L 69.25 5.5 L 69.25 69.25 L 5.5 69.25 Z M 5.5 5.5 " clip-rule="nonzero"/></clipPath><clipPath id="f412fb5862"><path d="M 42.980469 15.925781 L 56.480469 15.925781 L 56.480469 29.425781 L 42.980469 29.425781 Z M 42.980469 15.925781 " clip-rule="nonzero"/></clipPath><clipPath id="a789deb9ae"><path d="M 45.765625 18.710938 L 54.015625 18.710938 L 54.015625 26.960938 L 45.765625 26.960938 Z M 45.765625 18.710938 " clip-rule="nonzero"/></clipPath></defs><g clip-path="url(#29434ce6b8)"><path fill="#70c1e8" d="M 69.246094 37.375 C 69.246094 38.417969 69.195312 39.457031 69.09375 40.496094 C 68.992188 41.535156 68.839844 42.566406 68.636719 43.589844 C 68.433594 44.617188 68.179688 45.628906 67.875 46.625 C 67.574219 47.625 67.222656 48.605469 66.820312 49.570312 C 66.421875 50.535156 65.976562 51.476562 65.484375 52.398438 C 64.992188 53.320312 64.457031 54.214844 63.875 55.082031 C 63.296875 55.949219 62.675781 56.789062 62.011719 57.59375 C 61.351562 58.402344 60.648438 59.171875 59.910156 59.910156 C 59.171875 60.648438 58.402344 61.351562 57.59375 62.011719 C 56.789062 62.675781 55.949219 63.296875 55.082031 63.875 C 54.214844 64.457031 53.320312 64.992188 52.398438 65.484375 C 51.476562 65.976562 50.535156 66.421875 49.570312 66.820312 C 48.605469 67.222656 47.625 67.574219 46.625 67.875 C 45.628906 68.179688 44.617188 68.433594 43.589844 68.636719 C 42.566406 68.839844 41.535156 68.992188 40.496094 69.09375 C 39.457031 69.195312 38.417969 69.246094 37.375 69.246094 C 36.328125 69.246094 35.289062 69.195312 34.25 69.09375 C 33.210938 68.992188 32.179688 68.839844 31.15625 68.636719 C 30.132812 68.433594 29.121094 68.179688 28.121094 67.875 C 27.121094 67.574219 26.140625 67.222656 25.175781 66.820312 C 24.210938 66.421875 23.269531 65.976562 22.347656 65.484375 C 21.425781 64.992188 20.53125 64.457031 19.664062 63.875 C 18.796875 63.296875 17.960938 62.675781 17.152344 62.011719 C 16.34375 61.351562 15.574219 60.648438 14.835938 59.910156 C 14.097656 59.171875 13.394531 58.402344 12.734375 57.59375 C 12.070312 56.789062 11.449219 55.949219 10.871094 55.082031 C 10.289062 54.214844 9.753906 53.320312 9.261719 52.398438 C 8.769531 51.476562 8.324219 50.535156 7.925781 49.570312 C 7.527344 48.605469 7.175781 47.625 6.871094 46.625 C 6.566406 45.628906 6.316406 44.617188 6.109375 43.589844 C 5.90625 42.566406 5.753906 41.535156 5.652344 40.496094 C 5.550781 39.457031 5.5 38.417969 5.5 37.375 C 5.5 36.328125 5.550781 35.289062 5.652344 34.25 C 5.753906 33.210938 5.90625 32.179688 6.109375 31.15625 C 6.316406 30.132812 6.566406 29.121094 6.871094 28.121094 C 7.175781 27.121094 7.527344 26.140625 7.925781 25.175781 C 8.324219 24.210938 8.769531 23.269531 9.261719 22.347656 C 9.753906 21.425781 10.289062 20.53125 10.871094 19.664062 C 11.449219 18.796875 12.070312 17.960938 12.734375 17.152344 C 13.394531 16.34375 14.097656 15.574219 14.835938 14.835938 C 15.574219 14.097656 16.34375 13.394531 17.152344 12.734375 C 17.960938 12.070312 18.796875 11.449219 19.664062 10.871094 C 20.53125 10.289062 21.425781 9.753906 22.347656 9.261719 C 23.269531 8.769531 24.210938 8.324219 25.175781 7.925781 C 26.140625 7.527344 27.121094 7.175781 28.121094 6.871094 C 29.121094 6.566406 30.132812 6.316406 31.15625 6.109375 C 32.179688 5.90625 33.210938 5.753906 34.25 5.652344 C 35.289062 5.550781 36.328125 5.5 37.375 5.5 C 38.417969 5.5 39.457031 5.550781 40.496094 5.652344 C 41.535156 5.753906 42.566406 5.90625 43.589844 6.109375 C 44.617188 6.316406 45.628906 6.566406 46.625 6.871094 C 47.625 7.175781 48.605469 7.527344 49.570312 7.925781 C 50.535156 8.324219 51.476562 8.769531 52.398438 9.261719 C 53.320312 9.753906 54.214844 10.289062 55.082031 10.871094 C 55.949219 11.449219 56.789062 12.070312 57.59375 12.734375 C 58.402344 13.394531 59.171875 14.097656 59.910156 14.835938 C 60.648438 15.574219 61.351562 16.34375 62.011719 17.152344 C 62.675781 17.960938 63.296875 18.796875 63.875 19.664062 C 64.457031 20.53125 64.992188 21.425781 65.484375 22.347656 C 65.976562 23.269531 66.421875 24.210938 66.820312 25.175781 C 67.222656 26.140625 67.574219 27.121094 67.875 28.121094 C 68.179688 29.121094 68.433594 30.132812 68.636719 31.15625 C 68.839844 32.179688 68.992188 33.210938 69.09375 34.25 C 69.195312 35.289062 69.246094 36.328125 69.246094 37.375 Z M 69.246094 37.375 " fill-opacity="1" fill-rule="nonzero"/></g><path fill="#fffffe" d="M 34.082031 17.851562 C 32.902344 17.851562 31.585938 18.199219 30.410156 18.738281 C 27.441406 20.105469 24.800781 22.9375 26.019531 25.925781 C 26.0625 26.03125 26.054688 26.148438 26 26.246094 C 25.941406 26.339844 25.847656 26.40625 25.734375 26.417969 C 25.710938 26.421875 23.332031 26.75 22.085938 28.5625 C 21.292969 29.714844 21.113281 31.234375 21.5625 33.078125 C 21.589844 33.210938 21.546875 33.347656 21.441406 33.4375 C 21.308594 33.550781 18.140625 36.335938 21.0625 40.265625 C 21.167969 40.402344 21.15625 40.59375 21.039062 40.722656 C 21.023438 40.734375 19.742188 42.167969 19.949219 44.035156 C 20.097656 45.402344 20.996094 46.679688 22.621094 47.832031 C 22.722656 47.90625 22.78125 48.03125 22.769531 48.160156 C 22.480469 51.101562 25.121094 54.8125 28.542969 56.265625 C 30.347656 57.03125 33.835938 57.757812 37.011719 54.105469 L 37.011719 19.273438 C 36.453125 18.257812 35.351562 17.851562 34.082031 17.851562 Z M 31.480469 57.605469 C 30.414062 57.605469 29.324219 57.378906 28.261719 56.925781 C 26.476562 56.167969 24.839844 54.832031 23.664062 53.160156 C 22.523438 51.546875 21.949219 49.832031 22.039062 48.296875 C 20.339844 47.050781 19.394531 45.640625 19.230469 44.101562 C 19.046875 42.363281 19.921875 40.992188 20.320312 40.464844 C 18.765625 38.230469 18.988281 36.320312 19.46875 35.09375 C 19.875 34.054688 20.515625 33.335938 20.8125 33.039062 C 20.378906 31.078125 20.609375 29.433594 21.496094 28.148438 C 22.59375 26.554688 24.386719 25.976562 25.203125 25.789062 C 24.183594 22.519531 26.96875 19.527344 30.109375 18.085938 C 32.878906 16.8125 36.433594 16.558594 37.695312 19.019531 C 37.722656 19.070312 37.730469 19.125 37.730469 19.183594 L 37.730469 54.238281 C 37.730469 54.324219 37.703125 54.40625 37.644531 54.472656 C 36.28125 56.078125 34.710938 57.082031 32.972656 57.449219 C 32.484375 57.554688 31.988281 57.605469 31.480469 57.605469 Z M 31.480469 57.605469 " fill-opacity="1" fill-rule="nonzero"/><path fill="#fffffe" d="M 37.375 27.527344 C 37.367188 27.527344 37.363281 27.527344 37.355469 27.523438 C 37.175781 27.515625 32.980469 27.285156 31.476562 24.953125 C 31.367188 24.789062 31.414062 24.566406 31.582031 24.457031 C 31.746094 24.347656 31.972656 24.398438 32.078125 24.5625 C 33.386719 26.585938 37.351562 26.804688 37.390625 26.804688 C 37.589844 26.816406 37.742188 26.984375 37.730469 27.183594 C 37.722656 27.375 37.5625 27.527344 37.375 27.527344 Z M 37.375 27.527344 " fill-opacity="1" fill-rule="nonzero"/><path fill="#fffffe" d="M 25.429688 31.597656 C 25.367188 31.597656 25.304688 31.582031 25.25 31.550781 C 25.078125 31.453125 25.015625 31.234375 25.113281 31.0625 C 25.769531 29.890625 26.980469 29.527344 28.023438 29.453125 C 26.089844 28.152344 25.382812 26.285156 25.351562 26.1875 C 25.285156 26 25.375 25.792969 25.566406 25.726562 C 25.753906 25.65625 25.957031 25.753906 26.023438 25.9375 C 26.035156 25.964844 27.050781 28.636719 29.949219 29.601562 C 30.128906 29.664062 30.230469 29.855469 30.179688 30.042969 C 30.128906 30.226562 29.9375 30.335938 29.75 30.292969 C 29.722656 30.285156 26.757812 29.605469 25.742188 31.414062 C 25.675781 31.53125 25.550781 31.597656 25.429688 31.597656 Z M 25.429688 31.597656 " fill-opacity="1" fill-rule="nonzero"/><path fill="#fffffe" d="M 23.351562 38.207031 C 23.234375 38.207031 23.113281 38.144531 23.046875 38.035156 C 22.941406 37.867188 22.996094 37.644531 23.167969 37.539062 C 24.707031 36.59375 25.074219 35.183594 25.078125 35.167969 C 25.117188 35.019531 25.238281 34.914062 25.390625 34.898438 C 26.820312 34.753906 27.640625 34.941406 27.976562 35.480469 C 28.097656 35.679688 28.128906 35.886719 28.113281 36.09375 C 28.535156 35.757812 29.109375 35.304688 29.871094 34.710938 C 29.886719 34.703125 29.894531 34.695312 29.910156 34.6875 C 31.53125 33.734375 33.371094 33.496094 35.234375 33.992188 C 36.632812 34.367188 37.546875 35.019531 37.582031 35.046875 C 37.746094 35.164062 37.78125 35.390625 37.664062 35.550781 C 37.550781 35.710938 37.320312 35.746094 37.160156 35.632812 C 37.019531 35.53125 33.785156 33.261719 30.292969 35.292969 C 29.324219 36.050781 28.671875 36.570312 28.234375 36.917969 C 27.957031 37.140625 27.777344 37.285156 27.652344 37.378906 C 27.488281 37.5 27.246094 37.6875 27.007812 37.472656 C 26.769531 37.257812 26.9375 36.996094 27.039062 36.839844 C 27.167969 36.640625 27.511719 36.101562 27.363281 35.859375 C 27.304688 35.765625 27.023438 35.492188 25.695312 35.59375 C 25.507812 36.105469 24.941406 37.292969 23.542969 38.152344 C 23.484375 38.191406 23.421875 38.207031 23.351562 38.207031 Z M 23.351562 38.207031 " fill-opacity="1" fill-rule="nonzero"/><path fill="#fffffe" d="M 25.453125 55.023438 C 25.433594 55.023438 25.402344 55.019531 25.375 55.015625 C 25.183594 54.972656 25.0625 54.78125 25.105469 54.585938 C 25.121094 54.511719 25.519531 52.757812 26.191406 50.984375 C 27.160156 48.441406 28.167969 47.238281 29.273438 47.300781 C 29.441406 47.308594 29.578125 47.433594 29.609375 47.601562 C 29.625 47.6875 30.015625 49.761719 32.765625 50.957031 C 32.921875 51.023438 33.007812 51.195312 32.972656 51.359375 C 32.941406 51.527344 32.792969 51.648438 32.625 51.648438 C 32.609375 51.648438 31.25 51.660156 30.640625 52.378906 C 30.386719 52.679688 30.300781 53.066406 30.382812 53.5625 C 30.417969 53.757812 30.285156 53.941406 30.089844 53.976562 C 29.890625 54.007812 29.710938 53.875 29.675781 53.679688 C 29.558594 52.972656 29.699219 52.378906 30.09375 51.910156 C 30.460938 51.472656 31 51.230469 31.480469 51.097656 C 29.773438 50.039062 29.171875 48.667969 28.980469 48.046875 C 27.679688 48.433594 26.363281 52.257812 25.808594 54.742188 C 25.769531 54.910156 25.621094 55.023438 25.453125 55.023438 Z M 25.453125 55.023438 " fill-opacity="1" fill-rule="nonzero"/><path fill="#fffffe" d="M 25.554688 47.796875 C 25.492188 47.796875 25.429688 47.777344 25.371094 47.746094 C 25.207031 47.644531 25.148438 47.4375 25.238281 47.269531 C 25.097656 47.167969 24.640625 47.050781 24.234375 47.015625 C 24.121094 47.007812 24.015625 46.945312 23.957031 46.847656 C 23.175781 45.597656 25.089844 43.75 25.308594 43.546875 C 25.445312 43.417969 25.652344 43.414062 25.789062 43.535156 C 27.058594 44.617188 29.785156 42.058594 30.726562 40.980469 C 30.808594 40.886719 30.933594 40.84375 31.050781 40.859375 C 31.175781 40.878906 31.273438 40.957031 31.328125 41.066406 C 33.003906 44.785156 37.265625 44.027344 37.308594 44.019531 C 37.5 43.984375 37.691406 44.113281 37.726562 44.308594 C 37.765625 44.503906 37.636719 44.691406 37.441406 44.726562 C 37.390625 44.738281 36.210938 44.953125 34.792969 44.652344 C 33.066406 44.289062 31.734375 43.320312 30.910156 41.839844 C 30.535156 42.226562 29.902344 42.839844 29.171875 43.382812 C 27.382812 44.714844 26.261719 44.660156 25.597656 44.273438 C 25.070312 44.824219 24.371094 45.761719 24.503906 46.320312 C 24.960938 46.378906 25.683594 46.535156 25.90625 46.964844 C 26.011719 47.167969 25.996094 47.402344 25.863281 47.621094 C 25.796875 47.734375 25.679688 47.796875 25.554688 47.796875 Z M 25.554688 47.796875 " fill-opacity="1" fill-rule="nonzero"/><path fill="#fffffe" d="M 43.269531 57.605469 C 42.761719 57.605469 42.257812 57.554688 41.769531 57.449219 C 40.039062 57.082031 38.464844 56.078125 37.097656 54.472656 C 36.972656 54.320312 36.992188 54.09375 37.140625 53.964844 C 37.292969 53.835938 37.519531 53.855469 37.644531 54.007812 C 40.851562 57.769531 44.382812 57.035156 46.203125 56.265625 C 49.621094 54.8125 52.265625 51.101562 51.976562 48.160156 C 51.964844 48.03125 52.019531 47.90625 52.128906 47.832031 C 53.753906 46.675781 54.65625 45.398438 54.800781 44.027344 C 55.003906 42.15625 53.71875 40.734375 53.710938 40.722656 C 53.59375 40.59375 53.582031 40.402344 53.6875 40.265625 C 56.609375 36.335938 53.441406 33.550781 53.304688 33.433594 C 53.203125 33.347656 53.15625 33.210938 53.1875 33.078125 C 53.632812 31.234375 53.457031 29.714844 52.664062 28.5625 C 51.417969 26.75 49.035156 26.421875 49.015625 26.417969 C 48.902344 26.40625 48.804688 26.339844 48.75 26.242188 C 48.695312 26.148438 48.683594 26.03125 48.726562 25.925781 C 49.949219 22.9375 47.308594 20.105469 44.339844 18.738281 C 41.867188 17.605469 38.738281 17.308594 37.695312 19.347656 C 37.605469 19.523438 37.386719 19.59375 37.210938 19.503906 C 37.03125 19.414062 36.964844 19.195312 37.054688 19.019531 C 38.3125 16.558594 41.867188 16.8125 44.636719 18.085938 C 47.78125 19.527344 50.5625 22.519531 49.539062 25.789062 C 50.363281 25.976562 52.152344 26.554688 53.25 28.148438 C 54.136719 29.433594 54.367188 31.078125 53.933594 33.039062 C 54.234375 33.335938 54.871094 34.054688 55.277344 35.09375 C 55.753906 36.320312 55.980469 38.230469 54.429688 40.464844 C 54.828125 40.992188 55.703125 42.363281 55.515625 44.101562 C 55.351562 45.640625 54.410156 47.050781 52.710938 48.296875 C 52.796875 49.832031 52.226562 51.550781 51.085938 53.160156 C 49.90625 54.832031 48.273438 56.167969 46.484375 56.925781 C 45.421875 57.378906 44.332031 57.605469 43.269531 57.605469 Z M 43.269531 57.605469 " fill-opacity="1" fill-rule="nonzero"/><path fill="#fffffe" d="M 37.375 27.527344 C 37.183594 27.527344 37.023438 27.375 37.011719 27.183594 C 37.003906 26.984375 37.15625 26.816406 37.355469 26.804688 C 37.398438 26.804688 41.359375 26.585938 42.667969 24.5625 C 42.777344 24.398438 42.996094 24.347656 43.164062 24.457031 C 43.332031 24.566406 43.378906 24.789062 43.273438 24.953125 C 41.761719 27.285156 37.566406 27.515625 37.390625 27.523438 C 37.386719 27.527344 37.378906 27.527344 37.375 27.527344 Z M 37.375 27.527344 " fill-opacity="1" fill-rule="nonzero"/><path fill="#fffffe" d="M 49.320312 31.597656 C 49.191406 31.597656 49.074219 31.53125 49.007812 31.414062 C 47.984375 29.597656 45.027344 30.285156 44.996094 30.292969 C 44.8125 30.335938 44.621094 30.226562 44.570312 30.042969 C 44.515625 29.855469 44.617188 29.664062 44.800781 29.601562 C 47.710938 28.628906 48.710938 25.964844 48.71875 25.941406 C 48.785156 25.753906 48.996094 25.65625 49.183594 25.726562 C 49.367188 25.792969 49.464844 26 49.398438 26.1875 C 49.359375 26.285156 48.660156 28.152344 46.726562 29.453125 C 47.765625 29.527344 48.972656 29.890625 49.632812 31.0625 C 49.730469 31.234375 49.671875 31.453125 49.496094 31.550781 C 49.4375 31.582031 49.378906 31.597656 49.320312 31.597656 Z M 49.320312 31.597656 " fill-opacity="1" fill-rule="nonzero"/><path fill="#fffffe" d="M 51.390625 38.207031 C 51.328125 38.207031 51.265625 38.191406 51.207031 38.152344 C 49.808594 37.292969 49.242188 36.105469 49.050781 35.59375 C 47.726562 35.492188 47.441406 35.765625 47.386719 35.859375 C 47.238281 36.101562 47.578125 36.640625 47.710938 36.839844 C 47.808594 36.996094 47.976562 37.257812 47.738281 37.472656 C 47.5 37.6875 47.253906 37.5 47.09375 37.378906 C 46.972656 37.285156 46.789062 37.140625 46.515625 36.917969 C 46.078125 36.570312 45.421875 36.050781 44.453125 35.292969 C 40.957031 33.261719 37.722656 35.535156 37.582031 35.632812 C 37.421875 35.746094 37.199219 35.710938 37.082031 35.550781 C 36.964844 35.386719 37 35.164062 37.160156 35.046875 C 37.199219 35.019531 38.113281 34.367188 39.511719 33.992188 C 41.371094 33.496094 43.214844 33.734375 44.835938 34.6875 C 44.851562 34.695312 44.863281 34.703125 44.875 34.710938 C 45.636719 35.304688 46.207031 35.757812 46.628906 36.09375 C 46.613281 35.886719 46.652344 35.679688 46.769531 35.480469 C 47.101562 34.941406 47.925781 34.753906 49.355469 34.898438 C 49.507812 34.914062 49.632812 35.019531 49.671875 35.167969 C 49.675781 35.179688 50.054688 36.601562 51.582031 37.539062 C 51.75 37.644531 51.804688 37.867188 51.699219 38.035156 C 51.628906 38.144531 51.515625 38.207031 51.390625 38.207031 Z M 51.390625 38.207031 " fill-opacity="1" fill-rule="nonzero"/><path fill="#fffffe" d="M 49.28125 55.03125 C 49.117188 55.03125 48.96875 54.917969 48.933594 54.75 C 48.378906 52.265625 47.0625 48.441406 45.757812 48.054688 C 45.5625 48.675781 44.964844 50.046875 43.257812 51.105469 C 43.742188 51.238281 44.273438 51.480469 44.644531 51.917969 C 45.039062 52.386719 45.179688 52.980469 45.066406 53.6875 C 45.03125 53.882812 44.84375 54.015625 44.652344 53.980469 C 44.453125 53.949219 44.324219 53.765625 44.351562 53.566406 C 44.433594 53.074219 44.351562 52.6875 44.097656 52.382812 C 43.589844 51.785156 42.496094 51.65625 42.117188 51.65625 C 41.945312 51.65625 41.800781 51.535156 41.765625 51.367188 C 41.730469 51.199219 41.820312 51.03125 41.972656 50.964844 C 44.746094 49.761719 45.128906 47.628906 45.132812 47.605469 C 45.15625 47.441406 45.300781 47.316406 45.46875 47.308594 C 46.570312 47.242188 47.578125 48.449219 48.546875 50.992188 C 49.222656 52.761719 49.617188 54.519531 49.632812 54.59375 C 49.679688 54.785156 49.554688 54.980469 49.359375 55.023438 C 49.335938 55.027344 49.308594 55.03125 49.28125 55.03125 Z M 49.28125 55.03125 " fill-opacity="1" fill-rule="nonzero"/><path fill="#fffffe" d="M 49.1875 47.796875 C 49.066406 47.796875 48.945312 47.734375 48.878906 47.621094 C 48.75 47.402344 48.734375 47.167969 48.84375 46.964844 C 49.066406 46.535156 49.785156 46.378906 50.238281 46.320312 C 50.378906 45.761719 49.675781 44.824219 49.152344 44.273438 C 48.480469 44.660156 47.367188 44.714844 45.574219 43.382812 C 44.84375 42.839844 44.210938 42.226562 43.839844 41.839844 C 43.011719 43.320312 41.679688 44.289062 39.953125 44.652344 C 38.53125 44.953125 37.355469 44.738281 37.308594 44.726562 C 37.113281 44.691406 36.984375 44.503906 37.019531 44.308594 C 37.058594 44.113281 37.242188 43.984375 37.441406 44.019531 C 37.46875 44.023438 38.554688 44.21875 39.828125 43.945312 C 41.515625 43.582031 42.722656 42.617188 43.421875 41.066406 C 43.46875 40.957031 43.574219 40.878906 43.695312 40.859375 C 43.816406 40.84375 43.9375 40.886719 44.019531 40.980469 C 44.964844 42.058594 47.691406 44.617188 48.953125 43.535156 C 49.097656 43.414062 49.300781 43.417969 49.433594 43.546875 C 49.660156 43.75 51.574219 45.597656 50.792969 46.847656 C 50.730469 46.945312 50.628906 47.007812 50.511719 47.015625 C 50.105469 47.050781 49.652344 47.167969 49.511719 47.269531 C 49.59375 47.4375 49.539062 47.644531 49.375 47.746094 C 49.316406 47.777344 49.253906 47.796875 49.1875 47.796875 Z M 49.1875 47.796875 " fill-opacity="1" fill-rule="nonzero"/><path fill="#fffffe" d="M 32.234375 37.097656 C 32.085938 37.097656 31.945312 37 31.894531 36.851562 C 31.195312 34.808594 32.375 33.886719 32.421875 33.851562 C 32.582031 33.730469 32.804688 33.761719 32.925781 33.921875 C 33.042969 34.078125 33.015625 34.300781 32.859375 34.421875 C 32.820312 34.453125 32.054688 35.097656 32.574219 36.621094 C 32.636719 36.808594 32.539062 37.011719 32.351562 37.078125 C 32.3125 37.089844 32.273438 37.097656 32.234375 37.097656 Z M 32.234375 37.097656 " fill-opacity="1" fill-rule="nonzero"/><path fill="#fffffe" d="M 34.078125 32.480469 C 33.898438 32.480469 33.746094 32.347656 33.71875 32.167969 C 33.433594 29.84375 31.992188 29.507812 31.929688 29.496094 C 31.738281 29.453125 31.613281 29.261719 31.65625 29.070312 C 31.691406 28.875 31.882812 28.75 32.070312 28.789062 C 32.152344 28.804688 34.078125 29.214844 34.433594 32.078125 C 34.460938 32.273438 34.320312 32.453125 34.121094 32.480469 C 34.105469 32.480469 34.089844 32.480469 34.078125 32.480469 Z M 34.078125 32.480469 " fill-opacity="1" fill-rule="nonzero"/><path fill="#fffffe" d="M 33.65625 47.082031 L 33.660156 47.082031 Z M 34.367188 49.101562 Z M 34.707031 49.347656 C 34.5625 49.347656 34.425781 49.261719 34.371094 49.121094 C 34.207031 48.910156 33.0625 48.535156 31.90625 48.320312 C 31.734375 48.289062 31.605469 48.136719 31.609375 47.960938 C 31.613281 47.785156 31.742188 47.636719 31.914062 47.609375 C 31.925781 47.609375 33.039062 47.433594 33.601562 47.109375 C 33.632812 47.09375 33.648438 47.082031 33.65625 47.074219 C 33.644531 46.992188 33.492188 46.808594 33.347656 46.691406 C 33.191406 46.570312 33.160156 46.347656 33.28125 46.1875 C 33.402344 46.03125 33.625 46.003906 33.78125 46.121094 C 33.890625 46.203125 34.410156 46.628906 34.375 47.128906 C 34.363281 47.304688 34.28125 47.550781 33.960938 47.734375 C 33.820312 47.816406 33.65625 47.886719 33.484375 47.953125 C 34.265625 48.183594 34.917969 48.488281 35.050781 48.875 C 35.109375 49.0625 35.007812 49.265625 34.816406 49.328125 C 34.78125 49.34375 34.742188 49.347656 34.707031 49.347656 Z M 34.707031 49.347656 " fill-opacity="1" fill-rule="nonzero"/><path fill="#fffffe" d="M 40.367188 32.480469 C 40.351562 32.480469 40.335938 32.480469 40.320312 32.480469 C 40.125 32.453125 39.984375 32.273438 40.007812 32.078125 C 40.367188 29.214844 42.289062 28.804688 42.371094 28.789062 C 42.566406 28.75 42.753906 28.878906 42.792969 29.074219 C 42.828125 29.265625 42.707031 29.453125 42.507812 29.496094 C 42.441406 29.507812 41.011719 29.847656 40.71875 32.167969 C 40.699219 32.347656 40.546875 32.480469 40.367188 32.480469 Z M 40.367188 32.480469 " fill-opacity="1" fill-rule="nonzero"/><path fill="#fffffe" d="M 45.140625 39.574219 C 45.117188 39.574219 45.097656 39.574219 45.074219 39.570312 C 45.046875 39.566406 44.339844 39.445312 43.601562 39.242188 C 42.425781 38.917969 41.894531 38.585938 41.828125 38.132812 C 41.777344 37.796875 41.988281 37.511719 42.457031 37.277344 C 42.753906 37.128906 42.925781 36.925781 42.988281 36.652344 C 43.15625 35.898438 42.445312 34.773438 42.15625 34.40625 C 42.03125 34.25 42.058594 34.023438 42.214844 33.902344 C 42.371094 33.777344 42.597656 33.804688 42.722656 33.960938 C 42.769531 34.023438 43.96875 35.566406 43.691406 36.808594 C 43.582031 37.292969 43.269531 37.675781 42.78125 37.917969 C 42.667969 37.972656 42.605469 38.019531 42.570312 38.046875 C 42.824219 38.296875 43.996094 38.660156 45.195312 38.863281 C 45.394531 38.894531 45.523438 39.078125 45.492188 39.273438 C 45.464844 39.453125 45.3125 39.574219 45.140625 39.574219 Z M 45.140625 39.574219 " fill-opacity="1" fill-rule="nonzero"/><path fill="#fffffe" d="M 34.292969 40.417969 C 34.183594 40.417969 34.082031 40.371094 34.007812 40.28125 C 33.886719 40.128906 33.914062 39.902344 34.066406 39.777344 C 35.695312 38.476562 37.394531 38.90625 37.46875 38.925781 C 37.65625 38.976562 37.773438 39.175781 37.722656 39.367188 C 37.667969 39.558594 37.476562 39.671875 37.28125 39.621094 C 37.21875 39.605469 35.851562 39.273438 34.515625 40.339844 C 34.449219 40.390625 34.371094 40.417969 34.292969 40.417969 Z M 34.292969 40.417969 " fill-opacity="1" fill-rule="nonzero"/><path fill="#fffffe" d="M 40.230469 49.101562 Z M 39.894531 49.347656 C 39.855469 49.347656 39.816406 49.34375 39.777344 49.328125 C 39.589844 49.265625 39.488281 49.0625 39.550781 48.875 C 39.679688 48.488281 40.332031 48.183594 41.113281 47.953125 C 40.945312 47.886719 40.78125 47.816406 40.636719 47.734375 C 40.316406 47.550781 40.234375 47.304688 40.226562 47.128906 C 40.191406 46.628906 40.710938 46.203125 40.8125 46.121094 C 40.972656 46 41.195312 46.03125 41.320312 46.191406 C 41.4375 46.347656 41.410156 46.574219 41.253906 46.691406 C 41.109375 46.808594 40.953125 46.992188 40.945312 47.074219 C 40.953125 47.082031 40.964844 47.09375 40.996094 47.109375 C 41.5625 47.433594 42.671875 47.609375 42.683594 47.609375 C 42.855469 47.636719 42.984375 47.785156 42.988281 47.960938 C 42.988281 48.136719 42.867188 48.289062 42.695312 48.320312 C 41.535156 48.535156 40.390625 48.910156 40.226562 49.121094 C 40.171875 49.261719 40.039062 49.347656 39.894531 49.347656 Z M 39.894531 49.347656 " fill-opacity="1" fill-rule="nonzero"/><path fill="#fffffe" d="M 40.457031 40.417969 C 40.378906 40.417969 40.300781 40.390625 40.230469 40.339844 C 38.894531 39.273438 37.523438 39.609375 37.464844 39.621094 C 37.273438 39.671875 37.074219 39.554688 37.027344 39.363281 C 36.976562 39.171875 37.089844 38.976562 37.28125 38.925781 C 37.351562 38.90625 39.054688 38.476562 40.679688 39.777344 C 40.835938 39.902344 40.863281 40.128906 40.734375 40.28125 C 40.664062 40.371094 40.558594 40.417969 40.457031 40.417969 Z M 40.457031 40.417969 " fill-opacity="1" fill-rule="nonzero"/><g clip-path="url(#f412fb5862)"><path fill="#fffffe" d="M 54.371094 20.566406 L 51.839844 20.566406 L 51.839844 18.035156 C 51.839844 16.871094 50.890625 15.925781 49.730469 15.925781 C 48.570312 15.925781 47.621094 16.871094 47.621094 18.035156 L 47.621094 20.566406 L 45.089844 20.566406 C 43.925781 20.566406 42.980469 21.515625 42.980469 22.675781 C 42.980469 23.835938 43.925781 24.785156 45.089844 24.785156 L 47.621094 24.785156 L 47.621094 27.316406 C 47.621094 28.480469 48.570312 29.425781 49.730469 29.425781 C 50.890625 29.425781 51.839844 28.480469 51.839844 27.316406 L 51.839844 24.785156 L 54.371094 24.785156 C 55.535156 24.785156 56.480469 23.835938 56.480469 22.675781 C 56.480469 21.515625 55.535156 20.566406 54.371094 20.566406 Z M 54.371094 20.566406 " fill-opacity="1" fill-rule="nonzero"/></g><g clip-path="url(#a789deb9ae)"><path fill="#70c1e8" d="M 52.726562 21.546875 L 51.179688 21.546875 L 51.179688 20.003906 C 51.179688 19.289062 50.601562 18.710938 49.890625 18.710938 C 49.183594 18.710938 48.601562 19.289062 48.601562 20.003906 L 48.601562 21.546875 L 47.054688 21.546875 C 46.34375 21.546875 45.765625 22.128906 45.765625 22.835938 C 45.765625 23.546875 46.34375 24.128906 47.054688 24.128906 L 48.601562 24.128906 L 48.601562 25.671875 C 48.601562 26.386719 49.183594 26.960938 49.890625 26.960938 C 50.601562 26.960938 51.179688 26.386719 51.179688 25.671875 L 51.179688 24.128906 L 52.726562 24.128906 C 53.4375 24.128906 54.015625 23.546875 54.015625 22.835938 C 54.015625 22.128906 53.4375 21.546875 52.726562 21.546875 Z M 52.726562 21.546875 " fill-opacity="1" fill-rule="nonzero"/></g></svg>